<svg xmlns="http://www.w3.org/2000/svg" width="1061" height="1128"><path fill-rule="evenodd" fill="#F0C" d="M1042.056 513.477l-.707 14.85-35.355 35.355-.707-16.263 18.384-18.385-17.677.707.707-17.678-18.385 18.385-16.263-.707 35.355-35.355h15.556l18.385-18.385V495.8l19.092-.707-18.385 18.384zM935.99 548.833l18.385-18.385-17.678.707.707-17.678-18.384 18.385-16.264-.707 35.356-35.355h15.556l18.385-18.385v19.799l19.092-.707-18.385 18.385-.707 14.849-35.356 35.355-.707-16.263zm19.799-87.682l-17.677.708.707-17.678-18.385 18.385-16.264-.707 35.356-35.356h15.556l18.385-18.385v19.799l19.092-.707-18.385 18.385-.707 14.849-35.355 35.356-.708-16.264 18.385-18.385zm-87.681 19.799l18.385-18.384-17.678.707.707-17.678-18.385 18.385-16.263-.707 35.355-35.356h15.557l18.384-18.384v19.799l19.092-.707-18.384 18.384-.708 14.85-35.355 35.355-.707-16.264zm19.799-87.681l-17.678.707.707-17.677-18.384 18.384-16.264-.707 35.355-35.355H887.2l18.385-18.385v19.799l19.091-.707-18.384 18.385-.707 14.849-35.356 35.355-.707-16.263 18.385-18.385zm-87.681 19.799l18.384-18.385-17.677.708.707-17.678-18.385 18.385-16.263-.707 35.355-35.356h15.556l18.385-18.385v19.799l19.092-.707-18.385 18.385-.707 14.849-35.355 35.356-.707-16.264zm19.799-87.681l-17.678.707.707-17.678-18.385 18.385-16.263-.707 35.355-35.355h15.557l18.384-18.385v19.799l19.092-.707-18.385 18.385-.707 14.849-35.355 35.355-.707-16.263 18.385-18.385zm-87.682 19.799l18.385-18.385-17.677.707.707-17.677-18.385 18.384-16.264-.707 35.356-35.355h15.556l18.385-18.385v19.799l19.092-.707-18.385 18.385-.707 14.849-35.355 35.355-.708-16.263zm19.799-87.681l-17.677.707.707-17.678-18.385 18.385-16.263-.707 35.355-35.355h15.556l18.385-18.385v19.799l19.092-.707-18.385 18.384-.707 14.85-35.355 35.355-.707-16.263 18.384-18.385zm-87.681 19.799l18.385-18.385-17.678.707.707-17.678-18.384 18.385-16.264-.707 35.356-35.355h15.556l18.385-18.385v19.799l19.092-.707-18.385 18.385-.707 14.849-35.356 35.355-.707-16.263zm19.799-87.682l-17.677.708.707-17.678-18.385 18.385-16.264-.707 35.356-35.356h15.556l18.385-18.385v19.799l19.092-.707-18.385 18.385-.707 14.849-35.355 35.356-.708-16.264 18.385-18.385zm-87.681 19.799l18.385-18.384-17.678.707.707-17.678-18.385 18.385-16.263-.707 35.355-35.356h15.557l18.384-18.384v19.799l19.092-.707-18.384 18.384-.708 14.85-35.355 35.355-.707-16.264zm19.799-87.681l-17.678.707.707-17.677-18.384 18.384-16.264-.707 35.355-35.355h15.557l18.385-18.385v19.799l19.091-.707-18.384 18.385-.707 14.849-35.356 35.355-.707-16.263 18.385-18.385zm-87.681 19.799l18.384-18.385-17.677.708.707-17.678-18.385 18.385-16.263-.707 35.355-35.356h15.556l18.385-18.385V89.92l19.092-.707-18.385 18.385-.707 14.849-35.355 35.356-.707-16.264zm-34.649-.707v19.799l19.092-.707-18.384 18.385-.708 14.849-35.355 35.355-.707-16.263 18.385-18.385-17.678.707.707-17.677-18.385 18.384-16.263-.707 35.355-35.355h15.557l18.384-18.385zm-70.71 70.711v19.799l19.092-.707-18.385 18.384-.707 14.85-35.356 35.355-.707-16.263 18.385-18.385-17.678.707.708-17.678-18.385 18.385-16.264-.707 35.356-35.355h15.556l18.385-18.385zm-70.711 70.71v19.799l19.092-.707-18.385 18.385-.707 14.849-35.355 35.356-.707-16.264 18.384-18.385-17.677.708.707-17.678-18.385 18.385-16.263-.707 35.355-35.356h15.556l18.385-18.385zm-70.711 70.711v19.799l19.092-.707-18.384 18.385-.708 14.849-35.355 35.355-.707-16.263 18.385-18.385-17.678.707.707-17.677-18.385 18.384-16.263-.707 35.355-35.355h15.557l18.384-18.385zm-70.71 70.711v19.799l19.092-.707-18.385 18.384-.707 14.85-35.356 35.355-.707-16.263 18.385-18.385-17.678.707.708-17.678-18.385 18.385-16.264-.707 35.356-35.355h15.556l18.385-18.385zm-70.711 70.711v19.799l19.092-.708-18.385 18.385-.707 14.849-35.355 35.356-.707-16.264 18.384-18.384-17.677.707.707-17.678-18.385 18.385-16.263-.707 35.355-35.356h15.556l18.385-18.384zm-70.711 70.71v19.799l19.092-.707-18.384 18.385-.708 14.849-35.355 35.355-.707-16.263 18.385-18.385-17.678.707.707-17.677-18.385 18.384-16.263-.707 35.355-35.355H51.4l18.384-18.385zm50.912 16.971l18.385-18.385v19.799l19.092-.707-18.385 18.385-.707 14.849-35.355 35.355-.708-16.263 18.385-18.385-17.677.707.707-17.678-18.385 18.385-16.264-.707 35.356-35.355h15.556zm16.971 50.911v19.799l19.092-.707-18.385 18.385-.707 14.849-35.356 35.356-.707-16.264 18.385-18.385-17.678.708.707-17.678-18.384 18.385-16.264-.707 35.356-35.356h15.556l18.385-18.385zm50.911 16.971l18.385-18.385v19.799l19.092-.707-18.385 18.385-.707 14.849-35.355 35.355-.707-16.263 18.384-18.385-17.677.707.707-17.677-18.385 18.384-16.263-.707 35.355-35.355h15.556zm16.971 50.912v19.799l19.092-.707-18.385 18.384-.707 14.85-35.355 35.355-.708-16.264 18.385-18.384-17.677.707.707-17.678-18.385 18.385-16.264-.707 35.356-35.356h15.556l18.385-18.384zm50.912 16.97l18.384-18.385v19.799l19.092-.707-18.385 18.385-.707 14.849-35.355 35.356-.707-16.264 18.385-18.385-17.678.708.707-17.678-18.385 18.385-16.263-.707 35.355-35.356h15.557zm16.97 50.912v19.799l19.092-.707-18.385 18.385-.707 14.849-35.355 35.355-.707-16.263 18.384-18.385-17.677.707.707-17.678-18.385 18.385-16.263-.707 35.355-35.355h15.556l18.385-18.385zm50.912 16.971l18.385-18.385v19.799l19.091-.707-18.384 18.384-.707 14.85-35.356 35.355-.707-16.263 18.385-18.385-17.678.707.707-17.678-18.384 18.385-16.264-.707 35.355-35.355h15.557zm16.97 50.911v19.799l19.092-.707-18.384 18.385-.708 14.849-35.355 35.355-.707-16.263 18.385-18.385-17.678.707.707-17.677-18.385 18.384-16.263-.707 35.355-35.355h15.557l18.384-18.385zm50.912 16.971l18.385-18.385v19.799l19.092-.707-18.385 18.385-.707 14.849-35.355 35.355-.708-16.263 18.385-18.385-17.677.707.707-17.678-18.385 18.385-16.264-.707 35.356-35.355h15.556zm16.971 50.911v19.799l19.092-.707-18.385 18.385-.707 14.849-35.356 35.356-.707-16.264 18.385-18.385-17.678.708.707-17.678-18.384 18.385-16.264-.707 35.356-35.356h15.556l18.385-18.385zm50.911 16.971l18.385-18.385v19.799l19.092-.707-18.385 18.385-.707 14.849-35.355 35.355-.707-16.263 18.384-18.385-17.677.707.707-17.677-18.385 18.384-16.263-.707 35.355-35.355h15.556zm16.971 50.912v19.799l19.092-.707-18.385 18.384-.707 14.85-35.355 35.355-.708-16.264 18.385-18.384-17.677.707.707-17.678-18.385 18.385-16.264-.707 35.356-35.356h15.556l18.385-18.384zm50.912 16.97l18.384-18.385v19.799l19.092-.707-18.385 18.385-.707 14.849-35.355 35.356-.707-16.264 18.385-18.385-17.678.708.707-17.678-18.385 18.385-16.263-.707 35.355-35.356h15.557zm71.417-36.062l-17.677.707.707-17.678-18.385 18.385-16.263-.707 35.355-35.355H598.7l18.385-18.385v19.799l19.092-.707-18.385 18.384-.707 14.85-35.355 35.355-.707-16.263 18.384-18.385zm70.711-70.711l-17.678.707.707-17.677-18.384 18.384-16.264-.707 35.356-35.355h15.556l18.385-18.385v19.799l19.092-.707-18.385 18.385-.707 14.849-35.356 35.355-.707-16.263 18.385-18.385zm70.711-70.711l-17.678.708.707-17.678-18.385 18.385-16.263-.707 35.355-35.356h15.557l18.384-18.385v19.799l19.092-.707-18.384 18.385-.708 14.849-35.355 35.356-.707-16.264 18.385-18.385zm70.71-70.71l-17.677.707.707-17.678-18.385 18.385-16.263-.707 35.355-35.355h15.556l18.385-18.385v19.799l19.092-.707-18.385 18.384-.707 14.85-35.355 35.355-.707-16.263 18.384-18.385zm70.711-70.711l-17.678.707.708-17.677-18.385 18.384-16.264-.707 35.356-35.355h15.556l18.385-18.385v19.799l19.092-.707-18.385 18.385-.707 14.849-35.356 35.355-.707-16.263 18.385-18.385zm70.711-70.711l-17.678.708.707-17.678-18.385 18.385-16.263-.707 35.355-35.356h15.557l18.384-18.385v19.799l19.092-.707-18.384 18.385-.708 14.849-35.355 35.356-.707-16.264 18.385-18.385zm-86.267-49.497l18.385-18.385-17.678.707.707-17.677-18.385 18.384-16.263-.707 35.355-35.355h15.556l18.385-18.385v19.799l19.092-.707-18.385 18.385-.707 14.849-35.355 35.355-.707-16.263zm-67.883-67.882l18.385-18.385-17.677.707.707-17.678-18.385 18.385-16.264-.707 35.356-35.355h15.556l18.385-18.385v19.799l19.092-.707-18.385 18.385-.707 14.849-35.355 35.355-.708-16.263zm-67.882-67.883l18.385-18.384-17.678.707.707-17.678-18.384 18.385-16.264-.707 35.356-35.356h15.556l18.385-18.384v19.799l19.092-.707-18.385 18.384-.707 14.85-35.356 35.355-.707-16.264zM663.047 346.6l18.385-18.385-17.678.708.707-17.678-18.385 18.385-16.263-.707 35.355-35.356h15.557l18.384-18.385v19.799l19.092-.707-18.384 18.385-.708 14.849-35.355 35.356-.707-16.264zm-67.882-67.882l18.385-18.385-17.678.707.707-17.677-18.385 18.384-16.263-.707 35.355-35.355h15.556l18.385-18.385v19.799l19.092-.707-18.385 18.385-.707 14.849-35.355 35.355-.707-16.263zm-67.883-67.882l18.385-18.385-17.677.707.707-17.678-18.385 18.385-16.264-.707 35.356-35.355h15.556l18.385-18.385v19.799l19.092-.707-18.385 18.385-.707 14.849-35.355 35.355-.708-16.263zm-34.648-.707v19.799l19.092-.708-18.385 18.385-.707 14.849-35.355 35.356-.707-16.264 18.385-18.384-17.678.707.707-17.678-18.385 18.385-16.263-.707 35.355-35.356h15.556l18.385-18.384zm-70.71 70.71v19.799l19.091-.707-18.384 18.385-.707 14.849-35.356 35.356-.707-16.264 18.385-18.385-17.678.707.707-17.677-18.384 18.384-16.264-.707 35.355-35.355h15.557l18.385-18.385zm-70.711 70.711v19.799l19.092-.707-18.385 18.385-.707 14.849-35.355 35.355-.708-16.263 18.385-18.385-17.677.707.707-17.678-18.385 18.385-16.264-.707 35.356-35.355h15.556l18.385-18.385zm-70.711 70.711v19.799l19.092-.707-18.385 18.384-.707 14.85-35.355 35.355-.707-16.264 18.385-18.384-17.678.707.707-17.678-18.385 18.385-16.263-.707 35.355-35.356h15.556l18.385-18.384zm-70.71 70.71v19.799l19.091-.707-18.384 18.385-.707 14.849-35.356 35.356-.707-16.264 18.385-18.385-17.678.707.707-17.677-18.384 18.385-16.264-.708 35.355-35.355h15.557l18.385-18.385zm-19.799 87.682l18.384-18.385v19.799l19.092-.707-18.385 18.384-.707 14.85-35.355 35.355-.707-16.263 18.385-18.385-17.678.707.707-17.678-18.385 18.385-16.263-.707 35.355-35.355h15.557zm67.882 67.882l18.385-18.385v19.799l19.091-.707-18.384 18.385-.707 14.849-35.356 35.355-.707-16.263 18.385-18.385-17.678.707.707-17.678-18.384 18.385-16.264-.707 35.355-35.355h15.557zm67.882 67.882l18.385-18.385v19.799l19.092-.707-18.385 18.385-.707 14.849-35.356 35.356-.707-16.264 18.385-18.385-17.678.707.708-17.677-18.385 18.384-16.264-.707 35.356-35.355h15.556zm67.882 67.882l18.385-18.384v19.799l19.092-.708-18.385 18.385-.707 14.849-35.355 35.356-.707-16.264 18.384-18.384-17.677.707.707-17.678-18.385 18.385-16.263-.707 35.355-35.356h15.556zm67.883 67.883l18.384-18.385v19.799l19.092-.707-18.385 18.384-.707 14.85-35.355 35.355-.707-16.263 18.385-18.385-17.678.707.707-17.678-18.385 18.385-16.263-.707 35.355-35.355h15.557zm67.882 67.882l18.385-18.385v19.799l19.091-.707-18.384 18.385-.707 14.849-35.356 35.355-.707-16.263 18.385-18.385-17.678.707.707-17.678-18.384 18.385-16.264-.707 35.355-35.355h15.557zm71.418-36.063l-17.678.707.707-17.677-18.385 18.385-16.263-.708 35.355-35.355h15.556l18.385-18.385v19.799l19.092-.707-18.385 18.385-.707 14.849-35.355 35.356-.707-16.264 18.385-18.385zm70.71-70.71l-17.677.707.707-17.678-18.385 18.385-16.264-.707 35.356-35.356h15.556l18.385-18.384v19.799l19.092-.707-18.385 18.384-.707 14.85-35.355 35.355-.708-16.264 18.385-18.384zm70.711-70.711l-17.678.707.707-17.678-18.384 18.385-16.264-.707 35.355-35.355h15.557l18.385-18.385v19.799l19.091-.707-18.384 18.385-.707 14.849-35.356 35.355-.707-16.263 18.385-18.385zm70.711-70.711l-17.678.707.707-17.677-18.385 18.385-16.263-.708 35.355-35.355h15.557l18.384-18.385v19.799l19.092-.707-18.385 18.385-.707 14.849-35.355 35.356-.707-16.264 18.385-18.385zm70.71-70.71l-17.677.707.707-17.678-18.385 18.385-16.263-.707 35.355-35.356h15.556l18.385-18.384v19.799l19.092-.707-18.385 18.384-.707 14.85-35.355 35.355-.707-16.264 18.384-18.384zm-86.267-49.498l18.385-18.385-17.678.707.707-17.677-18.384 18.385-16.264-.708 35.356-35.355h15.556l18.385-18.385v19.799l19.092-.707-18.385 18.385-.707 14.849-35.356 35.356-.707-16.264zm-67.882-67.882l18.385-18.385-17.678.707.707-17.677-18.385 18.384-16.263-.707 35.355-35.355h15.557l18.384-18.385v19.799l19.092-.707-18.384 18.385-.708 14.849-35.355 35.355-.707-16.263zm-67.882-67.882l18.385-18.385-17.678.707.707-17.678-18.385 18.385-16.263-.707 35.355-35.355h15.556l18.385-18.385v19.799l19.092-.707-18.385 18.385-.707 14.849-35.355 35.355-.707-16.263zm-67.882-67.883l18.384-18.384-17.677.707.707-17.678-18.385 18.385-16.263-.707 35.355-35.356h15.556l18.385-18.384v19.799l19.092-.707-18.385 18.384-.707 14.85-35.355 35.355-.707-16.264zm-67.883-67.882l18.385-18.385-17.678.707.707-17.677-18.384 18.385-16.264-.708 35.356-35.355h15.556l18.385-18.385v19.799l19.092-.707-18.385 18.385-.707 14.849-35.356 35.356-.707-16.264zm-34.648-.707v19.799l19.092-.707-18.385 18.385-.707 14.849-35.355 35.355-.707-16.263 18.384-18.385-17.677.707.707-17.677-18.385 18.384-16.263-.707 35.355-35.355h15.556l18.385-18.385zm-70.711 70.711v19.799l19.092-.707-18.385 18.384-.707 14.85-35.355 35.355-.707-16.263 18.385-18.385-17.678.707.707-17.678-18.385 18.385-16.263-.707 35.355-35.355h15.557l18.384-18.385zm-70.71 70.71v19.799l19.092-.707-18.385 18.385-.707 14.849-35.356 35.356-.707-16.264 18.385-18.385-17.678.708.707-17.678-18.384 18.385-16.264-.707 35.356-35.356h15.556l18.385-18.385zm-70.711 70.711v19.799l19.092-.707-18.385 18.385-.707 14.849-35.355 35.355-.707-16.263 18.384-18.385-17.677.707.707-17.677-18.385 18.384-16.263-.707 35.355-35.355h15.556l18.385-18.385zm-19.799 87.681l18.385-18.384v19.799l19.092-.708-18.385 18.385-.707 14.849-35.356 35.356-.707-16.264 18.385-18.384-17.678.707.708-17.678-18.385 18.385-16.264-.707 35.356-35.356h15.556zm67.882 67.883l18.385-18.385v19.799l19.092-.707-18.385 18.384-.707 14.85-35.355 35.355-.707-16.263 18.384-18.385-17.677.707.707-17.678-18.385 18.385-16.263-.707 35.355-35.355h15.556zm67.883 67.882l18.384-18.385v19.799l19.092-.707-18.385 18.385-.707 14.849-35.355 35.355-.707-16.263 18.385-18.385-17.678.707.707-17.677-18.385 18.384-16.263-.707 35.355-35.355h15.557zm67.882 67.882l18.385-18.385v19.799l19.091-.707-18.384 18.385-.707 14.849-35.356 35.356-.707-16.264 18.385-18.385-17.678.707.707-17.677-18.384 18.385-16.264-.708 35.355-35.355h15.557zm67.882 67.882l18.385-18.384v19.799l19.092-.708-18.385 18.385-.707 14.849-35.356 35.356-.707-16.264 18.385-18.384-17.678.707.708-17.678-18.385 18.385-16.264-.707 35.356-35.356h15.556zm71.418-36.062l-17.678.707.707-17.678-18.385 18.385-16.263-.707 35.355-35.355h15.557l18.384-18.385v19.799l19.092-.707-18.384 18.385-.708 14.849-35.355 35.355-.707-16.263 18.385-18.385zm70.71-70.711l-17.677.707.707-17.677-18.385 18.384-16.263-.707 35.355-35.355h15.556l18.385-18.385v19.799l19.092-.707-18.385 18.385-.707 14.849-35.355 35.355-.707-16.263 18.384-18.385zm70.711-70.71l-17.678.707.708-17.678-18.385 18.385-16.264-.707 35.356-35.356h15.556l18.385-18.384v19.799l19.092-.708-18.385 18.385-.707 14.849-35.356 35.356-.707-16.264 18.385-18.384zm70.711-70.711l-17.678.707.707-17.678-18.385 18.385-16.263-.707 35.355-35.355h15.557l18.385-18.385v19.799l19.091-.707-18.384 18.385-.707 14.849-35.356 35.355-.707-16.263 18.385-18.385zm-86.267-49.498l18.385-18.384-17.678.707.707-17.678-18.385 18.385-16.263-.707 35.355-35.356h15.556l18.385-18.384v19.799l19.092-.708-18.385 18.385-.707 14.849-35.355 35.356-.707-16.264zm-67.882-67.882l18.384-18.385-17.677.707.707-17.677-18.385 18.385-16.263-.708 35.355-35.355h15.556l18.385-18.385v19.799l19.092-.707-18.385 18.385-.707 14.849-35.355 35.356-.707-16.264zm-67.883-67.882l18.385-18.385-17.678.707.708-17.677-18.385 18.384-16.264-.707 35.356-35.355h15.556l18.385-18.385v19.799l19.092-.707-18.385 18.385-.707 14.849-35.356 35.355-.707-16.263zm-67.882-67.882l18.385-18.385-17.678.707.707-17.678-18.385 18.385-16.263-.707 35.355-35.355h15.557l18.385-18.385v19.799l19.091-.707-18.384 18.385-.707 14.849-35.356 35.355-.707-16.263zm-34.648-.707v19.799l19.092-.708-18.385 18.385-.707 14.849-35.356 35.356-.707-16.264 18.385-18.384-17.678.707.708-17.678-18.385 18.385-16.264-.707 35.356-35.356h15.556l18.385-18.384zm-70.711 70.71v19.799l19.092-.707-18.385 18.385-.707 14.849-35.355 35.355-.707-16.263 18.384-18.385-17.677.707.707-17.677-18.385 18.384-16.263-.707 35.355-35.355h15.556l18.385-18.385zm-70.711 70.711v19.799l19.092-.707-18.384 18.385-.708 14.849-35.355 35.355-.707-16.263 18.385-18.385-17.678.707.707-17.678-18.385 18.385-16.263-.707 35.355-35.355H330l18.384-18.385zm-19.799 87.681l18.385-18.385v19.799l19.092-.707-18.385 18.385-.707 14.849-35.355 35.356-.707-16.264 18.385-18.385-17.678.707.707-17.677-18.385 18.385-16.263-.708 35.355-35.355h15.556zm67.883 67.882l18.385-18.384v19.799l19.091-.708-18.384 18.385-.707 14.849-35.356 35.356-.707-16.264 18.385-18.384-17.678.707.707-17.678-18.385 18.385-16.263-.707 35.355-35.356h15.557zm67.882 67.883l18.385-18.385v19.799l19.092-.707-18.385 18.385-.707 14.849-35.356 35.355-.707-16.263 18.385-18.385-17.678.707.708-17.678-18.385 18.385-16.264-.707 35.356-35.355h15.556zm67.882 67.882l18.385-18.385v19.799l19.092-.707-18.385 18.385-.707 14.849-35.355 35.355-.707-16.263 18.384-18.385-17.677.707.707-17.677-18.385 18.384-16.263-.707 35.355-35.355h15.556zm71.418-36.063l-17.678.708.707-17.678-18.384 18.385-16.264-.707 35.356-35.356h15.556l18.385-18.385v19.799l19.092-.707-18.385 18.385-.707 14.849-35.356 35.356-.707-16.264 18.385-18.385zm70.711-70.71l-17.678.707.707-17.678-18.385 18.385-16.263-.707 35.355-35.355h15.557l18.384-18.385v19.799l19.092-.707-18.385 18.384-.707 14.85-35.355 35.355-.707-16.263 18.385-18.385zm70.71-70.711l-17.677.707.707-17.677-18.385 18.384-16.263-.707 35.355-35.355h15.556l18.385-18.385v19.799l19.092-.707-18.385 18.385-.707 14.849-35.355 35.355-.707-16.263 18.384-18.385zm-86.267-49.497l18.385-18.385-17.678.707.708-17.678-18.385 18.385-16.264-.707 35.356-35.355h15.556l18.385-18.385v19.799l19.092-.707-18.385 18.384-.707 14.85-35.356 35.355-.707-16.263zm-67.882-67.883l18.385-18.384-17.678.707.707-17.678-18.384 18.385-16.264-.707 35.355-35.356H608.6l18.385-18.384v19.799l19.091-.708-18.384 18.385-.707 14.849-35.356 35.356-.707-16.264zm-67.882-67.882l18.385-18.385-17.678.707.707-17.677-18.385 18.385-16.263-.708 35.355-35.355h15.557l18.384-18.385v19.799l19.092-.707-18.385 18.385-.707 14.849-35.355 35.356-.707-16.264zm-34.648-.707v19.799l19.091-.707-18.384 18.385-.707 14.849-35.356 35.355-.707-16.263 18.385-18.385-17.678.707.707-17.678-18.384 18.385-16.264-.707 35.355-35.355h15.557l18.385-18.385zm-70.711 70.711v19.799l19.092-.707-18.385 18.384-.707 14.85-35.355 35.355-.708-16.264 18.385-18.384-17.677.707.707-17.678-18.385 18.385-16.264-.707 35.356-35.356h15.556l18.385-18.384zm-19.799 87.681l18.385-18.385v19.799l19.092-.707-18.385 18.385-.707 14.849-35.356 35.355-.707-16.263 18.385-18.385-17.678.707.707-17.677-18.384 18.384-16.264-.707 35.356-35.355h15.556zm67.882 67.882l18.385-18.385v19.799l19.092-.707-18.385 18.385-.707 14.849-35.355 35.356-.707-16.264 18.384-18.385-17.677.707.707-17.677-18.385 18.385-16.263-.708 35.355-35.355h15.556zm67.882 67.882l18.385-18.384v19.799l19.092-.707-18.385 18.384-.707 14.85-35.355 35.355-.707-16.264 18.385-18.384-17.678.707.707-17.678-18.385 18.385-16.263-.707 35.355-35.356h15.556zm71.418-36.062l-17.677.707.707-17.678-18.385 18.385-16.264-.707 35.356-35.355h15.556l18.385-18.385v19.799l19.092-.707-18.385 18.385-.707 14.849-35.355 35.355-.708-16.263 18.385-18.385zm70.711-70.711l-17.678.707.707-17.677-18.384 18.384-16.264-.707 35.355-35.355h15.557l18.385-18.385v19.799l19.091-.707-18.384 18.385-.707 14.849-35.356 35.356-.707-16.264 18.385-18.385zm-86.267-49.497l18.385-18.385-17.678.707.707-17.678-18.385 18.385-16.263-.707 35.355-35.355h15.557l18.384-18.385v19.799l19.092-.707-18.385 18.385-.707 14.849-35.355 35.355-.707-16.263zm-67.882-67.882l18.384-18.385-17.677.707.707-17.678-18.385 18.385-16.263-.707 35.355-35.355h15.556l18.385-18.385v19.799l19.092-.707-18.385 18.384-.707 14.85-35.355 35.355-.707-16.263zm-34.649-.708v19.799l19.092-.707-18.384 18.385-.708 14.849-35.355 35.356-.707-16.264 18.385-18.385-17.678.708.707-17.678-18.385 18.385-16.263-.707 35.355-35.356h15.557l18.384-18.385zm-19.799 87.682l18.385-18.385v19.799l19.092-.707-18.385 18.385-.707 14.849-35.355 35.355-.707-16.263 18.385-18.385-17.678.707.707-17.678-18.385 18.385-16.263-.707 35.355-35.355h15.556zm67.883 67.882l18.384-18.385v19.799l19.092-.707-18.384 18.385-.708 14.849-35.355 35.355-.707-16.263 18.385-18.385-17.678.707.707-17.677-18.385 18.384-16.263-.707 35.355-35.355h15.557zm71.417-36.063l-17.677.708.707-17.678-18.385 18.385-16.263-.707 35.355-35.356h15.556l18.385-18.385v19.799l19.092-.707-18.385 18.385-.707 14.849-35.355 35.356-.707-16.264 18.384-18.385zm-86.267-49.497l18.385-18.385-17.677.707.707-17.677-18.385 18.384-16.264-.707 35.356-35.355h15.556l18.385-18.385v19.799l19.092-.707-18.385 18.385-.707 14.849-35.355 35.355-.708-16.263zm16.264 16.263l18.385-18.384v19.799l19.092-.707-18.385 18.384-.707 14.85-35.356 35.355-.707-16.264 18.385-18.384-17.678.707.707-17.678-18.384 18.385-16.264-.707 35.356-35.356h15.556zm485.075-9.899l18.385-18.385v19.799l19.092-.707-18.385 18.385-.707 14.849-35.355 35.355-.708-16.263 18.385-18.385-17.677.707.707-17.677-18.385 18.384-16.264-.707 35.356-35.355h15.556zm-70.711 70.711l18.385-18.385v19.799l19.092-.707-18.385 18.385-.707 14.849-35.355 35.355-.707-16.263 18.385-18.385-17.678.707.707-17.678-18.385 18.385-16.263-.707 35.355-35.355h15.556zm-70.71 70.71l18.385-18.384v19.799l19.091-.708-18.384 18.385-.707 14.849-35.356 35.356-.707-16.264 18.385-18.384-17.678.707.707-17.678-18.384 18.385-16.264-.707 35.355-35.356h15.557zm-70.711 70.711l18.385-18.385v19.799l19.092-.707-18.385 18.385-.707 14.849-35.355 35.355-.708-16.263 18.385-18.385-17.677.707.707-17.677-18.385 18.384-16.264-.707 35.356-35.355h15.556zm-70.711 70.711l18.385-18.385v19.799l19.092-.707-18.385 18.385-.707 14.849-35.355 35.355-.707-16.263 18.385-18.385-17.678.707.707-17.678-18.385 18.385-16.263-.707 35.355-35.355h15.556zm-70.71 70.71l18.385-18.384v19.799l19.091-.708-18.384 18.385-.707 14.849-35.356 35.356-.707-16.264 18.385-18.384-17.678.707.707-17.678-18.384 18.385-16.264-.707 35.355-35.356h15.557zm-70.711 70.711l18.385-18.385v19.799l19.092-.707-18.385 18.385-.707 14.849-35.356 35.356-.707-16.264 18.385-18.385-17.678.707.708-17.677-18.385 18.384-16.264-.707 35.356-35.355h15.556zm-52.326 52.326v19.799l19.092-.707-18.385 18.385-.707 14.849-35.355 35.355-.707-16.263 18.384-18.385-17.677.707.707-17.678-18.385 18.385-16.263-.707 35.355-35.355h15.556l18.385-18.385zM35.136 567.218l18.385-18.385-17.678.707.707-17.678-18.384 18.385-16.264-.707 35.355-35.355h15.557L71.199 495.8v19.799l19.091-.707-18.384 18.384-.707 14.85-35.356 35.355-.707-16.263zm70.711-70.711l18.385-18.385-17.678.707.707-17.678-18.385 18.385-16.263-.707 35.355-35.355h15.557l18.384-18.385v19.799l19.092-.707-18.385 18.385-.707 14.849-35.355 35.355-.707-16.263zm70.711-70.711l18.384-18.385-17.677.707.707-17.677-18.385 18.385-16.263-.708 35.355-35.355h15.556l18.385-18.385v19.799l19.092-.707-18.385 18.385-.707 14.849-35.355 35.356-.707-16.264zm70.71-70.711l18.385-18.384-17.678.707.707-17.678-18.384 18.385-16.264-.707 35.356-35.356h15.556l18.385-18.384v19.799l19.092-.707-18.385 18.384-.707 14.85-35.356 35.355-.707-16.264zm70.711-70.71l18.385-18.385-17.678.707.707-17.678-18.385 18.385-16.263-.707 35.355-35.355h15.557l18.384-18.385v19.799l19.092-.707-18.385 18.385-.707 14.849-35.355 35.355-.707-16.263zm70.711-70.711l18.384-18.385-17.677.707.707-17.677-18.385 18.385-16.263-.708 35.355-35.355h15.556l18.385-18.385v19.799l19.092-.707-18.385 18.385-.707 14.849-35.355 35.356-.707-16.264zm70.71-70.711l18.385-18.384-17.678.707.707-17.678-18.384 18.385-16.264-.707 35.356-35.356h15.556l18.385-18.384v19.799l19.092-.707-18.385 18.384-.707 14.85-35.356 35.355-.707-16.264zm89.096-89.095l-17.678.707.707-17.678-18.385 18.385-16.263-.707 35.355-35.355h15.557L566.173.825v19.799l19.092-.707-18.385 18.385-.707 14.849-35.355 35.355-.707-16.263 18.385-18.385z"/></svg>