<?xml version="1.0" encoding="utf-8"?>
<!-- Generator: Adobe Illustrator 22.0.1, SVG Export Plug-In . SVG Version: 6.00 Build 0)  -->
<svg version="1.1" id="Layer_1" xmlns="http://www.w3.org/2000/svg" xmlns:xlink="http://www.w3.org/1999/xlink" x="0px" y="0px"
	 viewBox="0 0 628.3 634.6" style="enable-background:new 0 0 628.3 634.6;" xml:space="preserve">
<style type="text/css">
	.st0{fill:#7F2678;}
	.st1{opacity:0.24;fill:none;stroke:#000000;stroke-width:9;stroke-miterlimit:10;}
	.st2{fill:none;}
	.st3{fill:#FFFFFF;}
	.st4{font-family:'Monaco';}
	.st5{font-size:47px;}
</style>
<g>
	<polygon class="st0" points="47.1,483.1 241.8,15.1 629.1,343.8 194.5,610.4 75.8,116.4 584.5,155.1 389.8,623.8 1.8,295.1 
		435.1,30.4 555.8,524.4 	"/>
	<polygon class="st0" points="240.5,625.4 47.2,156.8 553.5,115.3 434.7,611.2 1.5,345.8 388.5,13.5 582.3,482.5 75.5,524.5 
		194.8,30.9 629.4,294.9 	"/>
	<polygon class="st0" points="479.1,587.8 11.1,393.1 339.8,5.8 606.5,440.4 112.5,559.1 151.1,50.4 619.8,245.1 291.1,633.1 
		26.5,199.8 520.5,79.1 	"/>
	<polygon class="st0" points="620.9,393.4 152.4,586.7 110.9,80.4 606.8,199.2 341.4,632.4 9,245.4 478.1,51.7 520,558.4 
		26.5,439.2 290.5,4.5 	"/>
</g>
<circle class="st1" cx="311.9" cy="317.3" r="261"/>
<rect x="122.9" y="159.3" class="st2" width="385.8" height="306.4"/>
<text transform="matrix(1 0 0 1 132.5039 196.2944)"><tspan x="0" y="0" class="st3 st4 st5">You blocked a </tspan><tspan x="14.1" y="56.4" class="st3 st4 st5">tracker from</tspan></text>
</svg>
