<?xml version="1.0" encoding="utf-8"?>
<!-- Generator: Adobe Illustrator 22.0.1, SVG Export Plug-In . SVG Version: 6.00 Build 0)  -->
<svg version="1.1" id="monster_capture_banner" xmlns="http://www.w3.org/2000/svg" xmlns:xlink="http://www.w3.org/1999/xlink"
	 x="0px" y="0px" viewBox="0 0 462.7 53.2" style="enable-background:new 0 0 462.7 53.2;" xml:space="preserve">
<style type="text/css">
	.st0{fill:none;}
	.st1{fill:#FFFFFF;}
	.st2{font-family:'Monaco';}
	.st3{font-size:17px;}
</style>
<polygon points="439.6,51.3 23.9,51.3 31.1,9.3 432.6,9.3 "/>
<polygon points="43.6,2 42.7,7 28.8,7 22.4,44.9 0,44.9 7.4,36.8 0,29.8 7.8,23.7 0,15.7 7.2,10.1 0,2 "/>
<polygon points="419.2,2 420.1,7 433.9,7 440.3,44.9 462.7,44.9 455.3,36.8 462.7,29.8 455,23.7 462.7,15.7 455.5,10.1 462.7,2 "/>
<rect x="37.7" y="23.5" class="st0" width="390.3" height="21.3"/>
<text transform="matrix(1 0 0 1 74.7075 36.8458)" class="st1 st2 st3">Tally caught a product monster!</text>
</svg>
