<svg version="1.1" id="monster_capture_banner" xmlns="http://www.w3.org/2000/svg" xmlns:xlink="http://www.w3.org/1999/xlink"
	 x="0px" y="0px" viewBox="0 0 462.7 53.2" style="enable-background:new 0 0 462.7 53.2;" xml:space="preserve">
<style type="text/css">
	.st0{fill:none;}
	.st1{fill:#FFFFFF;}
	.st2{font-family:'Monaco';}
	.st3{font-size:17px;}
</style>
<polygon points="23.1,2 438.8,2 431.6,44 30.1,44 "/>
<polygon points="419.1,51.3 420,46.3 433.9,46.3 440.3,8.4 462.7,8.4 455.3,16.5 462.7,23.5 454.9,29.6 462.7,37.6 455.5,43.2
	462.7,51.3 "/>
<polygon points="43.5,51.3 42.6,46.3 28.8,46.3 22.4,8.4 0,8.4 7.4,16.5 0,23.5 7.7,29.6 0,37.6 7.2,43.2 0,51.3 "/>
<rect x="37.7" y="14.3" class="st0" width="390.3" height="21.3"/>
<text transform="matrix(1 0 0 1 74.7075 27.7292)" class="st1 st2 st3">Tally caught a product monster!</text>
</svg>
