<svg id="shapes" xmlns="http://www.w3.org/2000/svg" xmlns:xlink="http://www.w3.org/1999/xlink" viewBox="0 0 3200 726"><defs><style>.cls-1{fill:none;}.cls-2{clip-path:url(#clip-path);}.cls-3{fill:#6a6a6a;}.cls-10,.cls-11,.cls-12,.cls-13,.cls-14,.cls-3,.cls-4,.cls-5,.cls-6,.cls-7,.cls-8,.cls-9{fill-rule:evenodd;}.cls-4{fill:#565656;}.cls-5{fill:#838383;}.cls-6{fill:#919191;}.cls-7{fill:#868686;}.cls-8{fill:#a0a0a0;}.cls-9{fill:#7f7f7f;}.cls-10{fill:silver;}.cls-11{fill:#a7a7a7;}.cls-12{fill:#969696;}.cls-13{fill:#a4a4a4;}.cls-14{fill:#434343;}</style><clipPath id="clip-path" transform="translate(0 -1074)"><polygon class="cls-1" points="3234 1216 3050 1323 2842 1315 2579 1211 2374 1203 2180 1244 2012 1232 1883 1294 1778 1207 1579 1183 1520 1311 1351 1227 1122 1213 880 1278 749 1227 463 1217 199 1302 143 1257 -41 1219 -187 1973 1673 2012 3342 1898 3234 1216"/></clipPath></defs><title>paperbacks one</title><g class="cls-2"><g id="Shape_23" data-name="Shape 23"><polygon class="cls-3" points="3200 698.46 2867 565 1429 432 906 432 132 187 0 143.62 0 726 3200 726 3200 698.46"/></g><g id="Shape_19" data-name="Shape 19"><polygon class="cls-4" points="2688 478 1554 343 1263 343 1224 448 1131 524 1242 586 1627 630 1905 677 2789 594 2688 478"/></g><g id="Shape_21" data-name="Shape 21"><polygon class="cls-5" points="2692 470 1497 388 1368 416 1166 468 1627 615 2048 596 2800 595 2692 470"/></g><g id="Shape_22" data-name="Shape 22"><polygon class="cls-6" points="1558 392 1480 456 2041 574 2594 549 1558 392"/></g><g id="Shape_20" data-name="Shape 20"><polygon class="cls-7" points="947 229 198 311 246 426 478 540 1095 508 1386 413 947 229"/></g><g id="Shape_18" data-name="Shape 18"><polygon class="cls-4" points="3053 635 2866 630 2873.56 726 3070.57 726 3053 635"/></g><g id="Shape_17" data-name="Shape 17"><polygon class="cls-8" points="2707.25 726 2879.63 726 2917 660 2819 577 2707.25 726"/></g><g id="Shape_16" data-name="Shape 16"><polygon class="cls-3" points="3200 639.27 3098.25 726 3200 726 3200 639.27"/></g><g id="Shape_15" data-name="Shape 15"><polygon class="cls-9" points="3200 132.36 3087 194 3200 548.32 3200 132.36"/></g><g id="Shape_13" data-name="Shape 13"><polygon class="cls-8" points="3200 669.18 3200 565.55 2633 102 2614 128 2599 186 2800 370 2939 676 3055.67 726 3116.51 726 3200 669.18"/></g><g id="Shape_14" data-name="Shape 14"><polygon class="cls-10" points="3200 537.37 3125 177 2621 125 2611 141 3200 565.95 3200 537.37"/></g><g id="Shape_12" data-name="Shape 12"><polygon class="cls-11" points="2840 403 2578 102 2071 0 1693 165 1597 451 1903 525 2681 565 2940 676 2840 403"/></g><g id="Shape_11" data-name="Shape 11"><polygon class="cls-10" points="1792 38 1514 54 912 243 1201 364 1239 402 1438 466 1599 452 1711 254 1867 197 1792 38"/></g><g id="Shape_9" data-name="Shape 9"><polygon class="cls-11" points="136 84 59 341 391 429 978 317 1240 403 1452 235 1459 31 136 84"/></g><g id="Shape_10" data-name="Shape 10"><polygon class="cls-10" points="481 39 424 106 408 377 553 384 1017 268 1366 99 481 39"/></g><g id="Shape_8" data-name="Shape 8"><polygon class="cls-7" points="30 664 94.27 726 347.1 726 400 571 184 662 30 664"/></g><g id="Shape_7" data-name="Shape 7"><polygon class="cls-6" points="1163 556 1250.18 726 1506.62 726 1163 556"/></g><g id="Shape_6" data-name="Shape 6"><polygon class="cls-10" points="2408 250 1762 427 2416 382 2477 355 2408 250"/></g><g id="Shape_5" data-name="Shape 5"><polygon class="cls-12" points="2558 279 2327 404 2385 504 2579 300 2697 300 2558 279"/></g><g id="Shape_4" data-name="Shape 4"><polygon class="cls-10" points="2159 135 1976 141 2064 197 2172 201 2239 247 2159 135"/></g><g id="Shape_3" data-name="Shape 3"><polygon class="cls-12" points="1403 110 1410 217 1171 287 1452 234 1516 132 1403 110"/></g><g id="Shape_2" data-name="Shape 2"><polygon class="cls-13" points="448 91 487 269 786 129 448 91"/></g><g id="Shape_1" data-name="Shape 1"><polygon class="cls-14" points="172 137 41 117 121 231 118 272 172 137"/></g></g></svg>