<svg id="shapes" xmlns="http://www.w3.org/2000/svg" xmlns:xlink="http://www.w3.org/1999/xlink" viewBox="0 0 3200 817"><defs><style>.cls-1{fill:none;}.cls-2{clip-path:url(#clip-path);}.cls-3{fill:#a0a0a0;}.cls-10,.cls-11,.cls-12,.cls-13,.cls-14,.cls-15,.cls-16,.cls-17,.cls-18,.cls-19,.cls-20,.cls-21,.cls-22,.cls-23,.cls-24,.cls-25,.cls-26,.cls-27,.cls-28,.cls-3,.cls-4,.cls-5,.cls-6,.cls-7,.cls-8,.cls-9{fill-rule:evenodd;}.cls-4{fill:#858585;}.cls-5{fill:#b7b7b7;}.cls-6{fill:#575757;}.cls-7{fill:#a5a5a5;}.cls-8{fill:#7d7d7d;}.cls-9{fill:#888;}.cls-10{fill:#a3a3a3;}.cls-11{fill:#a8a8a8;}.cls-12{fill:#b8b8b8;}.cls-13{fill:#565656;}.cls-14{fill:#787878;}.cls-15{fill:#b5b5b5;}.cls-16{fill:#a9a9a9;}.cls-17{fill:#818181;}.cls-18{fill:#5f5f5f;}.cls-19{fill:#b4b4b4;}.cls-20{fill:#b3b3b3;}.cls-21{fill:#b2b2b2;}.cls-22{fill:#3d3d3d;}.cls-23{fill:#6d6d6d;}.cls-24{fill:#696969;}.cls-25{fill:#4f4f4f;}.cls-26{fill:#9b9b9b;}.cls-27{fill:#3c3c3c;}.cls-28{fill:#656565;}</style><clipPath id="clip-path" transform="translate(0 -983)"><polygon class="cls-1" points="3244 1065 3004 1172 2826 1098 2605 1082 2520 1134 2383 1045 2163 1099 2068 1068 1942 1108 1851 1242 1576 1250 1387 1346 1127 1230 849 1228 752 1132 605 1159 473 1137 316 1194 138 1184 -31 1063 -1088 1896 298 2892 4213 2657 3244 1065"/></clipPath></defs><title>paperback four</title><g class="cls-2"><g id="Shape_33" data-name="Shape 33"><polygon class="cls-3" points="827 111 682 154 635 355 694 401 1056 595 1563 783 1713 619 1723 366 827 111"/></g><g id="Shape_32" data-name="Shape 32"><path class="cls-4" d="M1572,1245l-189,70-17,83,260,57s10.45,33.12,14,61c8.24,64.71,14,159,14,159l52-2,157-266,9-171Z" transform="translate(0 -983)"/></g><g id="Shape_31" data-name="Shape 31"><polygon class="cls-5" points="1691 298 1670 371 1600 486 1628 520 1751 377 1691 298"/></g><g id="Shape_30" data-name="Shape 30"><polygon class="cls-6" points="1819 246 1776 345 1736 399 1653 481 1818 516 1902 218 1819 246"/></g><g id="Shape_29" data-name="Shape 29"><polygon class="cls-7" points="1600 480 1451 535 1639 532 1778 356 1779 336 1600 480"/></g><g id="Shape_28" data-name="Shape 28"><polygon class="cls-8" points="3200 360.77 2520 143 2383 59 2162 113 2068 80 1939 127 1866 233 1790 484 2034 347 2535 652 3200 666.44 3200 360.77"/></g><g id="Shape_27" data-name="Shape 27"><polygon class="cls-9" points="2611 481 2304 257 2191 202 2222 385 2625 569 2824 554 2611 481"/></g><g id="Shape_26" data-name="Shape 26"><polygon class="cls-10" points="2060 96 1865 331 1670 688 1728 733 1768 663 1956 358 2199 196 2060 96"/></g><g id="Shape_24" data-name="Shape 24"><polygon class="cls-11" points="3200 817 3200 633.99 3091 606 2721 537 2601 489 2259 268 2188 176 1833 391 1694 718 1687.88 817 3200 817"/></g><g id="Shape_23" data-name="Shape 23"><polygon class="cls-12" points="2377 502 2046 460 2106 347 1826 636 1760 752 1728.59 817 2096.69 817 2264 672 2701 687 2459 580 2377 502"/></g><g id="Shape_25" data-name="Shape 25"><polygon class="cls-13" points="2085.8 817 2633.53 817 2462 805 2359 747 2303 636 2085.8 817"/></g><g id="Shape_22" data-name="Shape 22"><polygon class="cls-14" points="1280 497 1234 434 1173 404 1292 576 1421 600 1280 497"/></g><g id="Shape_21" data-name="Shape 21"><polygon class="cls-15" points="1030 402 931 412 1196 510 1030 402"/></g><g id="Shape_20" data-name="Shape 20"><polygon class="cls-8" points="1039 587 516 489 0 429.15 0 507.05 423 644 1071 802 1279 786 1274 679 1039 587"/></g><g id="Shape_19" data-name="Shape 19"><polygon class="cls-16" points="952 406 907 401 928 460 683 366 670 262 709 210 713 126 630 57 0 119.34 0 441.81 336 552 902 682 1034 668 1029 713 1273 685 1315 719 1541 731 1630 564 1479 618 952 406"/></g><g id="Shape_18" data-name="Shape 18"><polygon class="cls-17" points="482 613 0 479.7 0 817 1195.72 817 1251 773 868 746 482 613"/></g><g id="Shape_17" data-name="Shape 17"><polygon class="cls-18" points="166 632 0 511.57 0 817 1000.25 817 166 632"/></g><g id="Shape_16" data-name="Shape 16"><polygon class="cls-19" points="1826.77 817 1800 761 1660 647 1641 534 1522 674 1432 685 1174 598 1274 701 1092.43 817 1826.77 817"/></g><g id="Shape_15" data-name="Shape 15"><polygon class="cls-20" points="623 495 593 431 561 545 693 550 623 495"/></g><g id="Shape_14" data-name="Shape 14"><polygon class="cls-21" points="0 333.45 0 414.09 130 372 77 352 39 318 0 333.45"/></g><g id="Shape_13" data-name="Shape 13"><polygon class="cls-17" points="0 355.52 42 319 0 283.63 0 355.52"/></g><g id="Shape_12" data-name="Shape 12"><polygon class="cls-22" points="584 799 84 668 159.41 817 873.71 817 584 799"/></g><g id="Shape_11" data-name="Shape 11"><polygon class="cls-23" points="3067 365 2755 262 2540 267 2547 312 2612 352 3124 442 3067 365"/></g><g id="Shape_10" data-name="Shape 10"><polygon class="cls-24" points="2630 0 2444 57 2458 250 2547 312 2634 318 3003 312 3092 127 2630 0"/></g><g id="Shape_9" data-name="Shape 9"><polygon class="cls-25" points="3200 89.25 3036 172 3004 232 3200 242.43 3200 89.25"/></g><g id="Shape_8" data-name="Shape 8"><path class="cls-26" d="M2714,1518l486,184.86V1554.94Zm201.63,282H3200v-57.23L2892,1755Z" transform="translate(0 -983)"/></g><g id="Shape_7" data-name="Shape 7"><polygon class="cls-8" points="2890 763 2794.67 817 3045.83 817 2890 763"/></g><g id="Shape_6" data-name="Shape 6"><polygon class="cls-13" points="3200 153.03 2993 205 2960 259 2959 211 2602 316 3006 386 3122 447 3200 437.33 3200 153.03"/></g><g id="Shape_5" data-name="Shape 5"><polygon class="cls-27" points="1745 235 1766 310 1769 376 1815 311 1853 211 1745 235"/></g><g id="Shape_4" data-name="Shape 4"><polygon class="cls-21" points="1298 263 1004 183 1191 363 1186 328 1215 367 1298 263"/></g><g id="Shape_3" data-name="Shape 3"><polygon class="cls-28" points="890 147 757 124 757 274 837 363 795 273 890 147"/></g><g id="Shape_2" data-name="Shape 2"><polygon class="cls-8" points="313 233 493 106 229 164 161 250 428 383 333 284 313 233"/></g><g id="Shape_1" data-name="Shape 1"><polygon class="cls-17" points="0 181.41 81 128 86 77 0 52.52 0 181.41"/></g></g></svg>