<svg id="shapes" xmlns="http://www.w3.org/2000/svg" xmlns:xlink="http://www.w3.org/1999/xlink" viewBox="0 0 3200 863"><defs><style>.cls-1{fill:none;}.cls-2{clip-path:url(#clip-path);}.cls-3{fill:#888;}.cls-10,.cls-11,.cls-12,.cls-13,.cls-14,.cls-15,.cls-16,.cls-17,.cls-18,.cls-19,.cls-20,.cls-21,.cls-22,.cls-23,.cls-24,.cls-25,.cls-26,.cls-3,.cls-4,.cls-5,.cls-6,.cls-7,.cls-8,.cls-9{fill-rule:evenodd;}.cls-4{fill:#767676;}.cls-5{fill:#909090;}.cls-6{fill:#616161;}.cls-7{fill:#4e4e4e;}.cls-8{fill:#5d5d5d;}.cls-9{fill:#8b8b8b;}.cls-10{fill:#6d6d6d;}.cls-11{fill:#9e9e9e;}.cls-12{fill:#989898;}.cls-13{fill:#696969;}.cls-14{fill:#b1b1b1;}.cls-15{fill:#bebebe;}.cls-16{fill:#9a9a9a;}.cls-17{fill:#818181;}.cls-18{fill:#777;}.cls-19{fill:#a4a4a4;}.cls-20{fill:#a1a1a1;}.cls-21{fill:#969696;}.cls-22{fill:#acacac;}.cls-23{fill:#b7b7b7;}.cls-24{fill:#8d8d8d;}.cls-25{fill:#bababa;}.cls-26{fill:#b3b3b3;}</style><clipPath id="clip-path" transform="translate(0 -937)"><polygon class="cls-1" points="3268 1199 2842 1220 2742 1238 2517 1192 2276 1186 2201 1248 2122 1240 1852 1409 1775 1347 1547 1253 1465 1097 1369 1126 1256 1105 1216 1196 1117 1263 909 1265 818 1219 621 1178 454 1059 336 1101 263 1103 76 1145 -24 1134 -106 2006 3361 1995 3268 1199"/></clipPath></defs><title>paperback two</title><g class="cls-2"><g id="Shape_28" data-name="Shape 28"><polygon class="cls-3" points="3200 336.52 2853 380 2057 601 1502 585 852 440 899 574 1136.26 863 3200 863 3200 336.52"/></g><g id="Shape_27" data-name="Shape 27"><polygon class="cls-4" points="2571 442 2197 395 1719 452 1947 611 1947 656 1628 739 1835 742 2603 561 2571 442"/></g><g id="Shape_26" data-name="Shape 26"><polygon class="cls-5" points="1599 624 1355 747 1479 750 1642 739 1727 713 1599 624"/></g><g id="Shape_25" data-name="Shape 25"><polygon class="cls-6" points="2235 405 2408 594 2622 447 2235 405"/></g><g id="Shape_24" data-name="Shape 24"><polygon class="cls-7" points="3200 228.73 2770 227 2665 343 2929 378 3200 258.54 3200 228.73"/></g><g id="Shape_23" data-name="Shape 23"><polygon class="cls-8" points="2649 180 2308 160 2410 335 2770 339 2649 180"/></g><g id="Shape_21" data-name="Shape 21"><polygon class="cls-9" points="2101 270 1862 461 2193 400 2101 270"/></g><g id="Shape_22" data-name="Shape 22"><polygon class="cls-9" points="2345 179 2124 282 2171 364 2421 304 2345 179"/></g><g id="Shape_20" data-name="Shape 20"><polygon class="cls-6" points="2231 411 2416 592 2580 473 2231 411"/></g><g id="Shape_14" data-name="Shape 14"><path class="cls-9" d="M1761,1417l87-18s-147.26-222.48-316-323c-125.14-74.54-285-35-285-35l-107,174-30,63,209,127,407,246,220-51,20-52Z" transform="translate(0 -937)"/></g><g id="Shape_19" data-name="Shape 19"><polygon class="cls-10" points="3200 243.02 2927 357 3105 387 3184 564 2709 689 2895 591 2363 747 2796 801 3200 761.75 3200 243.02"/></g><g id="Shape_17" data-name="Shape 17"><polygon class="cls-11" points="1094 541 1131 652 1327 750 1454 741 1621 685 1648 649 1094 541"/></g><g id="Shape_18" data-name="Shape 18"><polygon class="cls-12" points="2183 344 2114 259 2113 282 2158 417 2539 495 1890.92 863 1927.58 863 2491 617 2831 540 3137 369 2420 298 2183 344"/></g><g id="Shape_16" data-name="Shape 16"><polygon class="cls-13" points="1546 234 1478 214 1536 399 1623 280 1546 234"/></g><g id="Shape_15" data-name="Shape 15"><polygon class="cls-14" points="1279 159 1335 247 1346 112 1279 159"/></g><g id="Shape_13" data-name="Shape 13"><polygon class="cls-15" points="661 549 656 555 799 695 906 629 939 554 661 549"/></g><g id="Shape_12" data-name="Shape 12"><polygon class="cls-16" points="965 499 830 641 663 671 0 648.54 0 863 1363.31 863 1084 663 1266 372 965 499"/></g><g id="Shape_11" data-name="Shape 11"><polygon class="cls-17" points="981 764 443 750 266 707 248 630 102 627 48 757 0 794.28 0 863 1045.4 863 981 764"/></g><g id="Shape_10" data-name="Shape 10"><polygon class="cls-18" points="961 786 678 853 427 800 219 689 242.41 863 1047.91 863 961 786"/></g><g id="Shape_9" data-name="Shape 9"><polygon class="cls-19" points="359 458 160 391 0 476.89 0 679.09 178 712 502 696 757 718 771 651 708 567 359 458"/></g><g id="Shape_8" data-name="Shape 8"><polygon class="cls-20" points="176 449 136 482 598 622 905 566 176 449"/></g><g id="Shape_7" data-name="Shape 7"><polygon class="cls-21" points="0 359.78 0 479.69 137 412 221 342 59 322 0 359.78"/></g><g id="Shape_4" data-name="Shape 4"><polygon class="cls-19" points="1422 359 1395 269 1045 197 451 0 413 23 335 557 890 566 1104 610 1532 467 1422 359"/></g><g id="Shape_5" data-name="Shape 5"><polygon class="cls-22" points="1726 714 1676 559 1205 248 1264 369 1083 665 1491 833 1139 598 1726 714"/></g><g id="Shape_6" data-name="Shape 6"><polygon class="cls-23" points="1392 326 1269 427 1444 643 1392 326"/></g><g id="Shape_3" data-name="Shape 3"><polygon class="cls-24" points="442 35 0 264.15 0 376.27 61 327 187 347 162 392 475 534 404 411 442 35"/></g><g id="Shape_1" data-name="Shape 1"><polygon class="cls-25" points="0 299.83 190 191 198 94 0 139.83 0 299.83"/></g><g id="Shape_2" data-name="Shape 2"><polygon class="cls-26" points="494 107 468 348 615 284 629 116 494 107"/></g><g id="Shape_30" data-name="Shape 30"><polygon class="cls-23" points="2870 488 2657 504 2835 541 3100 389 2870 488"/></g></g></svg>