<svg id="shapes" xmlns="http://www.w3.org/2000/svg" xmlns:xlink="http://www.w3.org/1999/xlink" viewBox="0 0 3200 943"><defs><style>.cls-1{fill:none;}.cls-2{clip-path:url(#clip-path);}.cls-3{fill:#666;}.cls-10,.cls-11,.cls-12,.cls-13,.cls-14,.cls-15,.cls-16,.cls-17,.cls-18,.cls-19,.cls-20,.cls-21,.cls-22,.cls-23,.cls-3,.cls-4,.cls-5,.cls-6,.cls-7,.cls-8,.cls-9{fill-rule:evenodd;}.cls-4{fill:#858585;}.cls-5{fill:#929292;}.cls-6{fill:#909090;}.cls-7{fill:#525252;}.cls-8{fill:#878787;}.cls-9{fill:#696969;}.cls-10{fill:#636363;}.cls-11{fill:#5b5b5b;}.cls-12{fill:gray;}.cls-13{fill:#5c5c5c;}.cls-14{fill:#a9a9a9;}.cls-15{fill:#9e9e9e;}.cls-16{fill:#797979;}.cls-17{fill:#a0a0a0;}.cls-18{fill:#a7a7a7;}.cls-19{fill:#959595;}.cls-20{fill:#999;}.cls-21{fill:#9b9b9b;}.cls-22{fill:#adadad;}.cls-23{fill:#b3b3b3;}</style><clipPath id="clip-path" transform="translate(0 -857)"><polygon class="cls-1" points="3254 1267 3042 1204 2761 1181 2468 1260 2366 1334 2169 1352 2050 1276 1894 1292 1596 1238 1544 1285 1212 1335 808 1222 723 1079 427 1041 121 1217 -31 1197 -256 1315 -863 2258 735 2285 3650 2140 3254 1267"/></clipPath></defs><title>paperback three</title><g class="cls-2"><g id="Shape_30" data-name="Shape 30"><polygon class="cls-3" points="327 248 397 738 442.26 943 1823.21 943 1992 685 1077 393 327 248"/></g><g id="Shape_29" data-name="Shape 29"><polygon class="cls-4" points="0 836.04 0 943 467.67 943 497 845 403 788 0 836.04"/></g><g id="Shape_28" data-name="Shape 28"><polygon class="cls-5" points="433 288 0 492.82 0 917.71 168 837 552 850 529 594 433 288"/></g><g id="Shape_27" data-name="Shape 27"><polygon class="cls-6" points="0 768.53 0 913.72 168 836 391 837 143 761 0 768.53"/></g><g id="Shape_25" data-name="Shape 25"><polygon class="cls-7" points="1644 742 1576 855 1269 942 1275.54 943 1386.34 943 1575 873 1567 908 1661 829 1868 669 1745 605 1644 742"/></g><g id="Shape_26" data-name="Shape 26"><polygon class="cls-7" points="733 483 980 782 1133 766 733 483"/></g><g id="Shape_24" data-name="Shape 24"><polygon class="cls-8" points="323 0 396 286 1068 697 1608 852 1763 664 1896 718 1846 791 1865 885 1883.99 943 2332.28 943 2409 431 2480 240 1260 22 323 0"/></g><g id="Shape_22" data-name="Shape 22"><polygon class="cls-9" points="2328 925 2308.63 943 2717.02 943 2842 475 2677 459 2328 925"/></g><g id="Shape_21" data-name="Shape 21"><polygon class="cls-10" points="2377 345 2323 457 2328 695 2321 933 2628 643 2658 362 2377 345"/></g><g id="Shape_20" data-name="Shape 20"><polygon class="cls-11" points="2765 591 2735 494 2693 459 2490 539 2326 694 2600 600 2319 934 2765 591"/></g><g id="Shape_19" data-name="Shape 19"><polygon class="cls-9" points="3200 943 3200 769.54 3158 782 2819 730 2502.33 943 3200 943"/></g><g id="Shape_18" data-name="Shape 18"><polygon class="cls-12" points="2728 875 2737 803 3165 350 3017 229 2730 294 2556 349 2621 497 2790 527 2558 905 3041 898 3110 850 3029 885 2728 875"/></g><g id="Shape_17" data-name="Shape 17"><polygon class="cls-13" points="3200 943 3200 852.88 3168 870 3052 918 2788.63 943 3200 943"/></g><g id="Shape_16" data-name="Shape 16"><polygon class="cls-13" points="3200 313.96 3099 247 3138 434 3200 467.26 3200 313.96"/></g><g id="Shape_15" data-name="Shape 15"><polygon class="cls-14" points="3200 455.07 3083 330 2849 612 2727 815 3008 773 3141 796 3200 778.14 3200 455.07"/></g><g id="Shape_14" data-name="Shape 14"><polygon class="cls-15" points="831 344 734 456 1005 550 1261 727 1428 773 1583 651 1914 514 1935 340 831 344"/></g><g id="Shape_13" data-name="Shape 13"><polygon class="cls-16" points="0 692.25 0 778 53 772 256 683 62 714 0 692.25"/></g><g id="Shape_12" data-name="Shape 12"><polygon class="cls-17" points="0 342.57 0 721.36 29 653 94 598 93 328 0 342.57"/></g><g id="Shape_11" data-name="Shape 11"><polygon class="cls-12" points="797.33 943 862.93 943 1075 851 709 538 797.33 943"/></g><g id="Shape_10" data-name="Shape 10"><polygon class="cls-16" points="1376 432 1313 617 1394 524 1535 421 1376 432"/></g><g id="Shape_9" data-name="Shape 9"><polygon class="cls-18" points="2328 409 2070 383 2067 611 1965 917 2062 750 2319 794 2122 679 2328 409"/></g><g id="Shape_8" data-name="Shape 8"><polygon class="cls-19" points="1913.81 943 1887 826 1844 792 1547.12 943 1913.81 943"/></g><g id="Shape_7" data-name="Shape 7"><polygon class="cls-20" points="208 889 125.97 943 293.85 943 208 889"/></g><g id="Shape_6" data-name="Shape 6"><polygon class="cls-21" points="0 761.77 0 781.38 572 884 488 581 440 553 0 761.77"/></g><g id="Shape_5" data-name="Shape 5"><polygon class="cls-15" points="1113 863 816 703 920.66 943 1222.61 943 1113 863"/></g><g id="Shape_4" data-name="Shape 4"><polygon class="cls-22" points="3200 758.48 2929 730 2650 833 3031 794 3164 829 3200 805.49 3200 758.48"/></g><g id="Shape_3" data-name="Shape 3"><polygon class="cls-14" points="2621 284 2637 479 2810 252 2621 284"/></g><g id="Shape_1" data-name="Shape 1"><polygon class="cls-23" points="622 2 133 240 48 339 13 506 579 258 582 204 693 129 622 2"/></g><g id="Shape_2" data-name="Shape 2"><polygon class="cls-23" points="1097 384 987 529 1102 518 1204 544 1097 384"/></g></g></svg>